<?xml version="1.0" encoding="UTF-8"?>
<svg id="Layer_1" xmlns="http://www.w3.org/2000/svg" version="1.1" viewBox="0 0 128 128">
  <!-- Generator: Adobe Illustrator 29.4.0, SVG Export Plug-In . SVG Version: 2.1.0 Build 152)  -->
  <defs>
    <style>
      .st0 {
        fill: #fbb03b;
      }
    </style>
  </defs>
  <rect width="128" height="128" rx="16" ry="16" transform="translate(0 128) rotate(-90)"/>
  <g>
    <g>
      <path class="st0" d="M57.41,49.3l-13.04,8.06c-3.7,2.28-7.1,4.98-10.16,8.04l-3.28,3.28,17.59-4.49,15.28,15.27-4.49,17.59,3.28-3.28c3.05-3.05,5.75-6.46,8.03-10.16l8.06-13.03-21.28-21.28Z"/>
      <polygon class="st0" points="49.29 72.14 40.63 87.37 55.85 78.7 57.18 80.02 50.58 101.6 49.02 95.76 41.73 102.09 44.06 93.15 16 112 34.84 83.94 25.91 86.28 32.23 78.98 26.39 77.42 47.97 70.82 49.29 72.14"/>
      <path class="st0" d="M99.68,50.01l-7.16,7.16-21.69-21.7,7.16-7.16c2.04-2.04,4.48-3.63,7.13-4.63l19.29-7.27c4.75-1.8,8.97,2.42,7.18,7.17l-7.28,19.29c-1,2.65-2.58,5.09-4.63,7.13Z"/>
      <rect class="st0" x="70.31" y="42.34" width="9.11" height="21.61" transform="translate(-15.65 68.5) rotate(-45)"/>
    </g>
    <g>
      <polygon class="st0" points="64 16 59.2 20.8 32.52 20.8 20.8 32.52 20.8 59.2 16 64 16 30.54 30.54 16 64 16"/>
      <polygon class="st0" points="107.19 68.8 107.19 95.46 95.45 107.2 68.8 107.2 64 112 97.45 112 111.99 97.46 111.99 64 107.19 68.8"/>
    </g>
  </g>
</svg>